# xmcd CD database file
#
# Track frame offsets:
#	150
#	23642
#	45940
#	81138
#	111320
#	142120
#	174785
#	227407
#
# Disc length: 3529 seconds
#
# Revision: 0
# Processed by: cddbd v1.5.1PL2 Copyright (c) Steve Scherf et al.
# Submitted via: Feurio! 1.68 - http://www.feurio.com
#
DISCID=550dc708
DTITLE=Lubo´s Andr´st s p´ràteli - Live  25 let s Blues
DYEAR=1900
DGENRE=
TTITLE0=Lubo`s Andr`st - Rock Me Baby
TTITLE1=Lubo`s Andr`st - Born Under A Bad Sign
TTITLE2=Lubo`s Andr`st - Stormy Monday Blues
TTITLE3=Lubo`s Andr`st - Mustang Sally
TTITLE4=Lubo`s Andr`st - Hoochie Coochie Man
TTITLE5=Lubo`s Andr`st - Cantaloupe Island
TTITLE6=Lubo`s Andr`st - Ráno
TTITLE7=Lubo`s Andr`st - Zapomenutý Ostrov
EXTD=
EXTT0=
EXTT1=
EXTT2=
EXTT3=
EXTT4=
EXTT5=
EXTT6=
EXTT7=
PLAYORDER=
